<?xml version="1.0" standalone="no"?><!DOCTYPE svg PUBLIC "-//W3C//DTD SVG 1.1//EN" "http://www.w3.org/Graphics/SVG/1.1/DTD/svg11.dtd"><svg t="1577776169031" class="icon" viewBox="0 0 1024 1024" version="1.1" xmlns="http://www.w3.org/2000/svg" p-id="30431" width="200" height="200" xmlns:xlink="http://www.w3.org/1999/xlink"><defs><style type="text/css"></style></defs><path d="M302.8736 401.2544c23.1168 74.7264 68.8128 104.2944 140.3136 129.5616 11.2896 4.3008 24.7296 4.3008 36.0192 3.2256 65.5872-6.4512 130.6368-72.576 148.9152-133.8624 11.8272-6.4512 20.4288-17.2032 26.3424-31.7184 6.4512-15.5904 9.1392-36.0192 8.6016-60.2112v-7.5264l-6.4512-4.3008a82.2528 82.2528 0 0 0-32.256-13.44c37.632-86.016 19.8912-148.9152-28.4928-184.9344-71.5008-52.6848-205.9008-52.1472-276.3264 5.9136-45.696 37.0944-57.5232 85.4784-43.008 189.7728-1.0752 0.5376-2.688 1.6128-3.7632 2.1504l-6.4512 4.3008v8.064c-0.5376 24.7296 2.688 45.696 9.1392 61.2864 6.4512 15.0528 15.5904 25.8048 27.4176 31.7184z m276.864 362.88c0-100.5312 76.3392-183.8592 174.1824-194.6112-2.1504-2.688-4.8384-4.8384-6.9888-6.9888h-78.4896c-20.9664 1.6128-39.2448 0-52.6848-6.9888l-90.3168 207.5136-24.192-133.8624 17.7408-8.064-0.5376-19.8912H442.112l-0.5376 19.8912 17.7408 8.064-25.2672 139.776-105.9072-222.0288c-13.44 16.128-32.7936 22.0416-57.5232 19.3536H186.2144c-91.392 80.1024-108.5952 237.0816-110.208 329.0112 17.2032 17.2032 53.2224 30.6432 99.9936 40.32l16.128-53.2224 34.944 62.3616c136.0128 19.8912 329.5488 18.2784 469.8624-2.688-69.888-30.1056-117.1968-98.3808-117.1968-177.9456z" fill="#e0620d" p-id="30432"></path><path d="M774.8864 593.7152c-94.08 0-170.4192 76.3392-170.4192 170.4192s76.3392 170.4192 170.4192 170.4192 170.4192-76.3392 170.4192-170.4192-76.3392-170.4192-170.4192-170.4192z m104.832 273.1008h-25.8048v-132.2496c0-10.752 0.5376-24.192 2.1504-39.2448h-0.5376c-2.1504 9.6768-4.3008 16.128-5.9136 19.8912L783.488 866.816h-14.5152l-65.5872-149.9904c-1.6128-3.2256-3.7632-10.752-5.9136-20.9664h-0.5376c1.0752 9.1392 1.0752 22.5792 1.0752 40.32V866.816H673.28v-199.4496h34.944l58.5984 136.5504c4.3008 10.2144 7.5264 18.816 9.1392 24.192h1.0752c4.3008-12.3648 7.5264-20.4288 9.1392-24.7296l59.6736-136.0128h33.3312V866.816z" fill="#e0620d" p-id="30433"></path></svg>