<?xml version="1.0" standalone="no"?><!DOCTYPE svg PUBLIC "-//W3C//DTD SVG 1.1//EN" "http://www.w3.org/Graphics/SVG/1.1/DTD/svg11.dtd"><svg t="1577776519279" class="icon" viewBox="0 0 1049 1024" version="1.1" xmlns="http://www.w3.org/2000/svg" p-id="35052" xmlns:xlink="http://www.w3.org/1999/xlink" width="204.8828125" height="200"><defs><style type="text/css"></style></defs><path d="M700.748864 50.328204l332.037426 564.458518A102.11823 102.11823 0 0 1 944.760375 768.704424H280.685524a102.11823 102.11823 0 0 1-88.025915-153.892173l332.037426-564.458518a102.11823 102.11823 0 0 1 176.051829 0z" fill="#FFE1E1" p-id="35053"></path><path d="M496.052872 693.009286c15.624089 0 26.040149-10.416059 26.040148-26.040149 0-15.649619-10.416059-26.091208-26.040148-26.091207h-57.339387l52.131357-52.131357a25.197673 25.197673 0 0 0 0-36.481738 25.197673 25.197673 0 0 0-36.507268 0l-62.547416 62.547416-62.547416-62.547416c-10.441589-10.416059-31.299238-10.416059-41.715297 0a25.197673 25.197673 0 0 0 0 36.507268l52.131357 52.105827h-52.131357c-15.649619 0-26.065678 15.649619-26.065678 26.065678 0 15.649619 10.416059 26.065678 26.040149 26.065678h78.222564v52.131357h-78.197035c-15.649619 0-26.065678 10.441589-26.065678 26.065678 0 15.649619 10.416059 26.065678 26.040149 26.065678h78.222564v73.014535c0 10.416059 5.20803 20.832119 10.41606 26.040149 10.441589 5.20803 20.857649 5.20803 26.065678 0 10.441589-5.20803 15.649619-15.624089 10.441589-26.040149v-73.014535h78.197035c15.624089 0 26.040149-10.416059 26.040149-26.040148 0-15.649619-10.416059-26.091208-26.040149-26.091208h-73.014535v-52.131357h78.222565z m0 0l286.696931 67.780975c-5.1825-172.043688-151.134981-291.930491-218.941486-338.853817 20.857649-26.065678 46.923327-62.547416 52.131357-99.054683 5.233559-26.040149 0-52.131357-15.624089-72.989006-20.857649-26.040149-41.715297-31.273708-57.339387-31.273708-20.857649 0-36.507267 10.441589-52.131356 15.649619-26.065678-20.857649-57.364916-46.923327-99.054684-46.923327-46.923327 0-78.197035 26.065678-93.846653 52.131357-15.624089-10.416059-31.273708-15.649619-52.131357-15.649619-15.624089 0-41.689768 5.233559-57.339386 31.299238-15.649619 15.624089-20.857649 41.689768-20.857649 67.755446 5.20803 36.507267 26.065678 72.989005 52.131357 99.054683C151.991024 468.859771 6.013014 588.746573 0.804984 760.790261c-5.20803 88.613094 15.624089 156.39407 57.339387 198.109367 52.131357 57.339386 119.912332 62.547416 145.97801 62.547416h364.919496c26.040149 0 93.821124-5.20803 145.95248-62.547416 46.923327-41.715297 67.780975-109.496272 67.780976-198.109367L496.052872 693.009286zM230.188059 286.400023c5.20803-10.441589 10.416059-10.441589 15.624089-10.441589 15.649619 0 31.273708 15.649619 41.715297 26.065678a39.82611 39.82611 0 0 0 26.040149 10.441589c10.467119-5.20803 15.649619-10.441589 20.883178-20.857649 0 0 15.624089-46.923327 57.339386-46.923326 36.507267 0 52.131357 46.923327 52.131357 46.923326 5.20803 10.416059 10.416059 15.649619 20.857649 20.857649 10.416059 0 20.832119 0 26.040148-10.441589 5.233559-5.20803 26.091208-26.040149 41.715297-26.040149 0 0 5.20803 0 15.649619 10.41606 5.20803 5.20803 10.416059 10.416059 5.20803 26.040148-5.20803 31.299238-46.923327 88.638624-46.923327 88.638624h-229.383075s-46.897797-57.339386-52.131356-88.613094c0-10.441589 5.233559-20.857649 5.233559-26.065678z m448.299031 630.784308c-36.456208 36.507267-88.587565 41.715297-104.237184 41.715297H209.330411c-20.857649 0-67.780975-5.233559-104.262714-41.715297C73.793989 885.910623 58.144371 833.804796 63.326871 760.790261c5.20803-177.251718 213.733456-302.37208 213.733456-302.372079h229.383074c5.20803 0 213.758986 125.120362 218.967016 302.372079 0 72.989005-15.649619 125.094832-46.923327 156.39407z" fill="#FF5555" p-id="35054"></path></svg>