<?xml version="1.0" standalone="no"?><!DOCTYPE svg PUBLIC "-//W3C//DTD SVG 1.1//EN" "http://www.w3.org/Graphics/SVG/1.1/DTD/svg11.dtd"><svg t="1577351623657" class="icon" viewBox="0 0 1024 1024" version="1.1" xmlns="http://www.w3.org/2000/svg" p-id="11545" xmlns:xlink="http://www.w3.org/1999/xlink" width="200" height="200"><defs><style type="text/css"></style></defs><path d="M511.700644 0.599649C229.166192 0.599649 0.000468 229.765372 0.000468 512.299824s229.165723 511.700176 511.700176 511.700176 511.700176-229.165723 511.700176-511.700176S794.335038 0.599649 511.700644 0.599649zM868.291704 783.94066s-1.299239 5.196955-1.898887 6.396252c-1.898887 3.897716-8.395081 11.593207-12.192856 14.191685-4.497365 3.198126-8.395081 5.196955-14.191685 6.396252l-7.695491 1.299238H196.985048c-3.897716 0-10.293968 0-13.492095-0.599648-3.897716-1.299239-11.593207-3.897716-14.791333-6.396252-3.897716-2.598477-8.395081-8.99473-10.893617-14.191685-0.599649-1.299239-1.898887-6.396252-1.898887-6.396252-1.299239-3.198126-9.69432-30.881905-0.599649-59.265274l0.599649-2.598478 1.898887-2.598477c21.287527-28.983018 73.357017-57.266445 128.124927-87.548702 50.870193-27.683779 126.825688-70.158891 127.425337-92.046067V527.690806c0-5.196955-1.898887-10.293968-5.796604-14.191684-44.473941-46.272887-68.959594-107.437049-68.959594-173.698224 0-109.435877 20.587937-220.170994 173.098575-220.170994S684.799219 229.66543 684.799219 337.802069c0 66.960765-24.485653 128.124927-68.859652 173.798165-3.897716 3.897716-5.796604 8.99473-5.796604 14.191685V538.684365c0.599649 21.887175 76.555143 63.762639 127.425337 92.046066 55.367558 30.282256 107.53699 59.265274 128.124927 87.548702l1.898887 2.598478 0.599649 2.598477c9.794261 29.582666 0.799532 57.166504 0.099941 60.464572z" fill="#F39800" p-id="11546"></path></svg>