<?xml version="1.0" standalone="no"?><!DOCTYPE svg PUBLIC "-//W3C//DTD SVG 1.1//EN" "http://www.w3.org/Graphics/SVG/1.1/DTD/svg11.dtd"><svg t="1577353502848" class="icon" viewBox="0 0 1024 1024" version="1.1" xmlns="http://www.w3.org/2000/svg" p-id="7882" xmlns:xlink="http://www.w3.org/1999/xlink" width="200" height="200"><defs><style type="text/css"></style></defs><path d="M512 65.536c-246.272 0-446.464 200.192-446.464 446.464s200.192 446.464 446.464 446.464 446.464-200.192 446.464-446.464-200.192-446.464-446.464-446.464z m0 818.688c-205.312 0-372.224-166.912-372.224-372.224S306.688 139.776 512 139.776s372.224 166.912 372.224 372.224-166.912 372.224-372.224 372.224z m42.496-461.312V276.48c0-23.552-19.456-42.496-42.496-42.496-23.04 0-42.496 19.456-42.496 42.496v317.44c0 23.552 19.456 42.496 42.496 42.496 23.552 0 42.496-19.456 42.496-42.496V422.912z m0 279.04v16.896c0-23.552-19.456-42.496-42.496-42.496-23.04 0-42.496 19.456-42.496 42.496v-16.896 34.304-16.896c0 23.552 19.456 42.496 42.496 42.496 23.552 0 42.496-19.456 42.496-42.496v16.896-34.304z" p-id="7883" fill="#d81e06"></path></svg>