<?xml version="1.0" standalone="no"?><!DOCTYPE svg PUBLIC "-//W3C//DTD SVG 1.1//EN" "http://www.w3.org/Graphics/SVG/1.1/DTD/svg11.dtd"><svg t="1577353436822" class="icon" viewBox="0 0 1024 1024" version="1.1" xmlns="http://www.w3.org/2000/svg" p-id="3938" xmlns:xlink="http://www.w3.org/1999/xlink" width="200" height="200"><defs><style type="text/css"></style></defs><path d="M516.032 1022.976C231.04 1022.976 0 794.24 0 512S231.04 0.96 516.032 0.96C797.888 5.312 1023.936 232.896 1023.936 512c0 279.104-226.048 506.688-507.904 510.976z" fill="#CC9999" p-id="3939"></path><path d="M374.272 780.608H373.76l0.128 0.128h0.256l0.128-0.128z" fill="" p-id="3940"></path><path d="M739.008 297.024H332.416a30.976 30.976 0 0 0-31.296 30.72v322.496c0 16.96 14.016 30.656 31.296 30.656h155.648l47.68 46.08 46.912-46.08h156.352c17.28 0 31.296-13.76 31.296-30.656V327.744c0-17.024-14.08-30.72-31.296-30.72zM418.432 519.808a31.04 31.04 0 0 1-31.36-30.784c0-17.024 14.016-30.72 31.36-30.72 17.28 0 31.296 13.696 31.296 30.72a31.04 31.04 0 0 1-31.296 30.784z m117.376 0a31.04 31.04 0 0 1-31.36-30.784c0-17.024 14.016-30.72 31.36-30.72 17.216 0 31.296 13.696 31.296 30.72a31.104 31.104 0 0 1-31.296 30.784z m124.928 0a31.04 31.04 0 0 1-31.36-30.784c0-17.024 14.016-30.72 31.36-30.72 17.28 0 31.232 13.696 31.232 30.72a30.912 30.912 0 0 1-31.232 30.784z m0 0" fill="#FFFFFF" p-id="3941"></path></svg>