<?xml version="1.0" standalone="no"?><!DOCTYPE svg PUBLIC "-//W3C//DTD SVG 1.1//EN" "http://www.w3.org/Graphics/SVG/1.1/DTD/svg11.dtd"><svg t="1575877425750" class="icon" viewBox="0 0 1024 1024" version="1.1" xmlns="http://www.w3.org/2000/svg" p-id="7009" xmlns:xlink="http://www.w3.org/1999/xlink" width="200" height="200"><defs><style type="text/css"></style></defs><path d="M698.88 196.096H498.688s-66.56-22.016-66.56-57.856c0-26.624 97.792-39.936 168.96-44.544 71.168 0 168.96 26.624 168.96 44.544-4.096 35.328-71.168 57.856-71.168 57.856z m-480.768 494.08c0-173.568 133.632-351.744 289.28-409.6h204.8c160.256 57.856 289.28 236.032 289.28 409.6 0 209.408-115.712 307.2-391.68 307.2-275.968 4.608-391.68-97.792-391.68-307.2z" fill="#f1b88d" p-id="7010"></path><path d="M351.744 124.416h13.312c-4.608 0-17.92-4.608-26.624-13.312-13.312-8.704-17.92-13.312-17.92-13.312 0 13.312-4.608 13.312-4.608 13.312 8.704-4.608 17.92-8.704 31.232-8.704 31.232-4.608 71.168-8.704 102.4-8.704s66.56 4.608 102.4 13.312c13.312 4.608 26.624 8.704 35.84 13.312h4.608c-4.608-4.608-8.704-8.704-8.704-22.016 0 0-4.608 4.608-17.92 13.312-8.704 4.608-22.016 8.704-26.624 13.312h13.312-200.704v-0.512z m204.8 71.68h4.608c8.704-4.608 26.624-8.704 39.936-17.92 31.232-17.92 49.152-39.936 49.152-71.168 0-49.152-111.104-80.384-204.8-80.384-107.008 0-204.8 22.016-204.8 80.384 0 31.232 22.016 53.248 49.152 71.168 13.312 8.704 31.232 17.92 39.936 17.92h226.816zM369.664 280.576h-13.312 204.8-13.312c146.944 53.248 267.264 218.112 267.264 373.76 0 191.488-102.4 271.36-356.352 271.36S102.4 841.216 102.4 654.336c0-155.648 120.32-325.12 267.264-373.76z m89.088 716.8c289.28 0 427.52-111.104 427.52-343.04 0-186.88-138.24-378.368-315.904-440.832H347.136C173.568 275.968 31.232 472.064 31.232 654.336c0 231.424 137.728 343.04 427.52 343.04z" fill="#F57C00" p-id="7011"></path><path d="M432.128 630.272c-11.264-1.536-20.992-3.584-28.672-5.632-7.68-2.048-16.384-4.608-26.112-8.704-9.728-4.096-17.92-8.704-24.576-14.848-6.656-6.144-11.264-13.312-14.336-22.528-3.072-9.216-3.584-18.944-2.048-30.208 1.536-14.336 6.144-27.136 14.336-37.888 7.68-10.752 17.408-18.432 29.184-23.04 11.776-4.096 22.016-7.168 31.232-8.192l20.992-2.56c0-4.608 0.512-8.192 1.024-10.24 1.024-2.048 3.072-4.096 6.144-6.656 3.072-2.048 7.68-3.072 14.336-2.048s9.728 4.096 9.216 9.728v7.68c10.24 2.048 18.944 4.096 26.624 6.144 7.68 2.048 15.872 6.144 24.576 11.776s15.36 12.288 20.48 18.944 9.728 14.848 14.336 23.552 6.656 15.872 5.632 21.504c-1.024 5.12-3.584 9.216-7.68 11.776-4.096 2.56-8.704 2.56-13.312 0-4.608-2.56-8.192-6.656-10.752-12.288l-8.704-19.968c-4.096-7.168-9.728-13.824-16.896-19.456-7.168-5.632-13.824-8.704-19.968-9.728l-13.824-2.048V604.16c17.408 2.048 30.72 4.608 40.448 6.656 9.216 2.048 17.92 5.632 25.088 9.728 7.168 4.096 13.312 9.728 18.432 15.872s8.704 14.336 11.264 23.04c2.56 9.216 3.584 18.944 2.56 30.208-1.024 11.264-4.608 21.504-10.24 31.232s-14.848 18.432-26.624 25.6c-11.776 7.68-22.528 11.776-32.768 13.312l-28.16 4.608v9.216c0 3.072-1.024 6.144-2.56 9.216-1.536 2.56-5.632 4.608-11.264 5.12s-9.728-0.512-12.8-3.584-4.096-6.144-4.096-9.216v-11.264c-10.752-2.048-20.48-4.608-28.672-7.168-8.192-2.56-17.408-6.656-27.136-11.776-9.728-5.632-17.92-11.264-24.064-17.92-6.144-6.656-11.776-13.824-16.896-21.504-4.608-8.192-7.168-15.872-7.168-23.04s2.56-12.8 7.68-15.872c5.12-3.072 9.216-3.072 12.8 0.512s6.656 8.704 9.216 15.872c2.56 7.168 7.168 13.824 13.312 19.968 6.144 6.144 13.312 11.264 21.504 15.872 7.68 4.608 14.336 7.68 18.432 8.704l20.48 6.144v-103.424z m0-124.416c-9.216 0.512-16.384 1.024-21.504 2.048s-11.264 3.072-17.92 6.144c-6.656 3.072-12.288 7.68-16.896 13.824-4.608 6.144-7.168 13.824-8.704 22.528-1.536 8.704 0 16.896 4.608 24.064 3.584 6.144 9.728 11.264 17.408 15.36 7.68 3.584 17.408 6.656 28.16 8.704l14.848 3.072V505.856z m30.208 229.888c7.168-0.512 14.336-1.536 20.992-2.56s13.824-4.096 20.992-8.704c7.168-4.608 12.8-10.24 16.896-16.896s6.144-13.824 6.656-21.504c0.512-7.68 0-15.36-2.048-23.04s-6.144-13.824-12.288-18.944-16.384-8.192-30.72-9.728l-20.992-2.048v103.424z" fill="#F57C00" p-id="7012"></path></svg>