<?xml version="1.0" standalone="no"?><!DOCTYPE svg PUBLIC "-//W3C//DTD SVG 1.1//EN" "http://www.w3.org/Graphics/SVG/1.1/DTD/svg11.dtd"><svg t="1577353424062" class="icon" viewBox="0 0 1064 1024" version="1.1" xmlns="http://www.w3.org/2000/svg" p-id="3179" xmlns:xlink="http://www.w3.org/1999/xlink" width="207.8125" height="200"><defs><style type="text/css"></style></defs><path d="M968.18733828 287.9351153H808.04134443l54.75184805-54.56217568a45.7740624 45.7740624 0 0 0 4.23599765-21.05354004 32.18093614 32.18093614 0 0 0-8.40877118-21.24321064l-84.34060664-84.15093516a28.19783408 28.19783408 0 0 0-42.10707921 0l-168.61798828 177.02675947-168.61798915-177.02675947a28.19783408 28.19783408 0 0 0-42.10707921 0L268.4890707 191.07618894a26.55401396 26.55401396 0 0 0-4.17277353 42.29675068l54.81507129 54.75184716H175.802917a28.83007266 28.83007266 0 0 0-29.52553448 29.46231124v316.11921328A28.83007266 28.83007266 0 0 0 175.802917 662.72605544h8.40877118v248.46970166a28.83007266 28.83007266 0 0 0 29.52553448 29.46231123h716.51580996a28.83007266 28.83007266 0 0 0 29.52553447-29.46231123v-248.46970166h8.40877119a28.83007266 28.83007266 0 0 0 29.52553448-29.46231035v-316.11921417a28.83007266 28.83007266 0 0 0-29.52553448-29.20941561z" fill="#FF6E74" p-id="3180"></path><path d="M314.45280371 263.46748854L264.31629717 213.33098112a23.20315049 23.20315049 0 0 1-8.40877119-21.05353916 23.13992636 23.13992636 0 0 1 12.64476797-21.05354003L352.82967646 87.00974352a28.19783408 28.19783408 0 0 1 42.17030333 0l168.23864531 176.45774503z m249.48128408 1e-8L732.1727331 87.00974352a28.19783408 28.19783408 0 0 1 42.17030333 0L858.62041894 171.22390193a32.18093614 32.18093614 0 0 1 8.40877119 21.05354003 45.7740624 45.7740624 0 0 1-4.23599765 21.05353916l-50.19973154 50.13650742z" fill="#F4E834" p-id="3181"></path><path d="M941.57010019 603.35886677H62V248.92600485h204.08656464L176.56160293 159.40104313 295.2959794 40.66666667l208.25933818 208.25933818h5.81659365L717.63124942 40.66666667l118.73437646 118.73437646-89.52496084 89.52496172h194.72943515zM93.61192167 571.74694597h816.34625773V280.53792565H670.52948662l121.13688252-121.13688252L717.63124942 85.36592341 522.45924717 280.53792565h-31.99126465L295.2959794 85.36592341 221.32408378 159.40104313l121.07365841 121.13688252H93.61192167z" fill="#E84149" p-id="3182"></path><path d="M838.26234161 935.66338474H165.30775947a28.45072881 28.45072881 0 0 1-28.45072968-28.45072969V609.68125163a28.45072881 28.45072881 0 0 1 28.45072968-28.45072969h672.95458213a28.45072881 28.45072881 0 0 1 28.45072881 28.45072969v297.53140342a28.45072881 28.45072881 0 0 1-28.45072881 28.45072969z m-669.79339015-31.61192169h666.63219727V612.71599626H168.46895146z" fill="#EA3038" p-id="3183"></path><path d="M916.28056338 612.33665241H87.28953682a25.28953682 25.28953682 0 0 1-25.28953682-25.28953681V283.19332732a25.28953682 25.28953682 0 0 1 25.28953682-25.28953682h828.99102656a25.28953682 25.28953682 0 0 1 25.28953681 25.28953682v303.85378828a25.28953682 25.28953682 0 0 1-25.28953681 25.28953682zM87.28953682 283.19332732v303.85378828h828.99102656V283.19332732z" fill="#E84149" p-id="3184"></path><path d="M450.19439492 277.75607663h99.51432803v326.48792431H450.19439492z" fill="#F4E834" p-id="3185"></path><path d="M549.77194707 604.24400094H450.19439492V277.62962927h99.57755216z m-86.93278418-12.64476884h74.28801533V290.27439812H462.83916289z" fill="#E84149" p-id="3186"></path></svg>