<?xml version="1.0" standalone="no"?><!DOCTYPE svg PUBLIC "-//W3C//DTD SVG 1.1//EN" "http://www.w3.org/Graphics/SVG/1.1/DTD/svg11.dtd"><svg t="1577353466580" class="icon" viewBox="0 0 1024 1024" version="1.1" xmlns="http://www.w3.org/2000/svg" p-id="5444" xmlns:xlink="http://www.w3.org/1999/xlink" width="200" height="200"><defs><style type="text/css"></style></defs><path d="M512 0C229.28 0 0.057 229.223 0.057 511.943S229.28 1023.885 512 1023.885s511.943-229.223 511.943-511.942S794.834 0 512 0z m-16.381 821.354c-32.763 0-59.34-27.15-59.34-60.485 0-33.45 26.577-60.485 59.34-60.485s59.339 27.035 59.339 60.485-26.577 60.485-59.34 60.485z m165.76-380.091c-8.248 15.58-17.87 29.097-29.212 40.437-11.226 11.341-31.502 30.472-60.713 57.278-8.02 7.56-14.549 14.204-19.36 19.932-4.811 5.728-8.477 10.997-10.883 15.694-2.405 4.697-4.238 9.508-5.498 14.32-1.26 4.81-3.208 13.173-5.843 25.087-4.467 25.43-18.672 38.032-42.385 38.032-12.371 0-22.681-4.124-31.158-12.487-8.477-8.362-12.601-20.62-12.601-37 0-20.506 3.093-38.262 9.279-53.269 6.186-15.006 14.319-28.18 24.514-39.52 10.196-11.342 23.942-24.86 41.24-40.438 15.235-13.632 26.118-23.942 32.877-30.93 6.758-6.988 12.486-14.663 17.068-23.255 4.583-8.591 6.988-17.755 6.988-27.836 0-19.474-7.102-35.97-21.192-49.373-14.09-13.403-32.305-20.162-54.643-20.162-26.118 0-45.363 6.76-57.62 20.276-12.372 13.518-22.797 33.45-31.274 59.798-8.019 27.607-23.369 41.354-45.936 41.354-13.288 0-24.515-4.811-33.679-14.434-9.164-9.623-13.746-20.047-13.746-31.273 0-23.14 7.216-46.624 21.65-70.451 14.434-23.827 35.627-43.53 63.349-59.11 27.722-15.58 60.14-23.37 97.142-23.37 34.366 0 64.837 6.53 91.07 19.59 26.348 13.059 46.738 30.815 61.058 53.267 14.319 22.453 21.536 46.853 21.536 73.2 0.229 20.735-3.78 38.949-12.028 54.643z" fill="#e98f36" p-id="5445"></path></svg>