<?xml version="1.0" standalone="no"?><!DOCTYPE svg PUBLIC "-//W3C//DTD SVG 1.1//EN" "http://www.w3.org/Graphics/SVG/1.1/DTD/svg11.dtd"><svg t="1575615345375" class="icon" viewBox="0 0 1024 1024" version="1.1" xmlns="http://www.w3.org/2000/svg" p-id="5704" xmlns:xlink="http://www.w3.org/1999/xlink" width="200" height="200"><defs><style type="text/css"></style></defs><path d="M1007.418 464.104L512.015 0.898 16.602 462.74a23.97 23.97 0 0 0-1.172 33.915c9.056 9.684 24.243 10.205 33.943 1.167L511.977 66.578l462.621 432.56a23.97 23.97 0 0 0 16.416 6.483 23.895 23.895 0 0 0 17.528-7.606 23.965 23.965 0 0 0 6.477-17.188 23.96 23.96 0 0 0-7.601-16.723z m-108.182 64.179c-14.908 0-26.999 12.08-27.012 26.99v413.854H656.079V681.236H367.896v287.891H151.773V555.273c-0.009-14.912-12.104-26.996-27.017-26.99a26.999 26.999 0 0 0-27.022 26.99v467.828h324.208V735.209h180.115v287.893h324.195V555.273c-0.012-14.91-12.105-26.992-27.016-26.99z m-196.73-397.931h155.871v138.409a25.969 25.969 0 0 0 25.976 25.96 25.965 25.965 0 0 0 25.97-25.959V78.448H702.506c-14.184 0.208-25.577 11.766-25.577 25.952 0 14.188 11.393 25.746 25.577 25.952z" p-id="5705" fill="#000000"></path></svg>