<?xml version="1.0" standalone="no"?><!DOCTYPE svg PUBLIC "-//W3C//DTD SVG 1.1//EN" "http://www.w3.org/Graphics/SVG/1.1/DTD/svg11.dtd"><svg t="1575615439295" class="icon" viewBox="0 0 1024 1024" version="1.1" xmlns="http://www.w3.org/2000/svg" p-id="8087" xmlns:xlink="http://www.w3.org/1999/xlink" width="200" height="200"><defs><style type="text/css"></style></defs><path d="M0.00043 254.080647c1.279999-24.639979 2.047998-49.279959 3.903997-73.789938 2.367998-30.655974 27.903977-55.295954 58.62395-57.279952 27.199977-1.791998 54.591954-2.175998 81.663932-5.119996 108.223909-11.64999 208.255825-47.23196 300.095748-105.729911 18.623984-11.83999 37.887968-15.679987 58.87995-8.639993 5.567995 1.919998 11.007991 4.799996 15.935987 7.999993C600.959925 63.746806 689.855851 97.666778 785.53577 113.410765c36.15997 6.015995 72.703939 8.767993 109.375908 9.279992 38.719967 0.576 63.999946 25.983978 66.687944 64.831946 3.647997 51.519957 3.135997 102.909914-1.727998 154.23987-16.959986 178.17385-76.095936 339.645715-191.807839 478.141598-70.783941 84.799929-156.927868 149.759874-257.663784 195.263836-19.135984 8.639993-38.079968 8.191993-57.279952-0.639999-91.135923-41.279965-170.367857-99.007917-237.6318-172.991855C128.000322 745.152234 69.440372 632.832329 34.752401 507.776434 11.77642 424.833503 0.960429 340.096574 0.00043 254.081647z m67.391943-66.621944c-0.639999 12.15999-1.663999 24.06398-1.983998 36.095969-1.663999 59.58295 1.919998 118.8469 11.64799 177.726851 15.487987 93.886921 44.927962 183.102846 91.903923 266.239776 72.255939 127.934893 173.439854 225.086811 307.391742 287.166759 4.159997 1.855998 7.487994 1.919998 11.77599 0.064 121.471898-55.999953 217.279818-141.567881 288.063758-254.655786 94.91192-151.615873 130.047891-318.462733 122.239897-495.679584-0.256-5.693995-1.023999-11.32599-1.471998-17.149985-2.303998-0.128-4.031997-0.32-5.759995-0.384-40.447966-0.639999-80.703932-3.967997-120.511899-10.751991C669.119868 158.720727 574.719947 122.690757 487.74402 67.394803c-3.775997-2.431998-6.463995-2.623998-10.623991-0.127999-15.999987 9.791992-32.127973 19.647983-48.767959 28.543976-96.127919 51.455957-198.591833 81.215932-307.327742 88.895925-17.471985 1.151999-35.007971 1.855998-53.631955 2.751998z m351.103706 404.02966c2.367998-2.751998 3.839997-4.799996 5.503995-6.527994 75.135937-75.199937 150.335874-150.335874 225.407811-225.534811 8.319993-8.319993 17.599985-13.311989 29.567975-11.64799 12.47999 1.855998 21.247982 8.767993 25.727978 20.479983 4.479996 11.83999 2.111998 22.655981-5.823995 32.319973-1.663999 1.983998-3.647997 3.903997-5.567995 5.759995-82.81593 82.750931-165.695861 165.759861-248.511792 248.510791-18.175985 18.111985-35.26397 18.111985-53.567955-0.192a55522.20637 55522.20637 0 0 1-122.879896-122.687897c-13.375989-13.439989-14.335988-32.447973-2.623998-45.439962 12.47999-13.759988 33.215972-14.335988 46.84796-0.959999 19.647983 19.327984 39.039967 38.847967 58.431951 58.303951 15.551987 15.487987 30.975974 31.039974 47.487961 47.61596z" p-id="8088" fill="#000000"></path></svg>