<?xml version="1.0" standalone="no"?><!DOCTYPE svg PUBLIC "-//W3C//DTD SVG 1.1//EN" "http://www.w3.org/Graphics/SVG/1.1/DTD/svg11.dtd"><svg t="1575877448509" class="icon" viewBox="0 0 1024 1024" version="1.1" xmlns="http://www.w3.org/2000/svg" p-id="7842" xmlns:xlink="http://www.w3.org/1999/xlink" width="200" height="200"><defs><style type="text/css"></style></defs><path d="M170.666667 810.666667V213.333333a64 64 0 0 1 64-64h384a64 64 0 0 1 64 64v597.333334a64 64 0 0 1-64 64H234.666667a64 64 0 0 1-64-64z" fill="#FFD20F" p-id="7843"></path><path d="M533.333333 341.333333m64 0l277.333334 0q64 0 64 64l0 490.666667q0 64-64 64l-277.333334 0q-64 0-64-64l0-490.666667q0-64 64-64Z" fill="#FFFFFF" p-id="7844"></path><path d="M597.333333 320h277.333334a85.333333 85.333333 0 0 1 85.333333 85.333333v490.666667a85.333333 85.333333 0 0 1-85.333333 85.333333H597.333333a85.333333 85.333333 0 0 1-85.333333-85.333333V405.333333a85.333333 85.333333 0 0 1 85.333333-85.333333z m0 42.666667a42.666667 42.666667 0 0 0-42.666666 42.666666v490.666667a42.666667 42.666667 0 0 0 42.666666 42.666667h277.333334a42.666667 42.666667 0 0 0 42.666666-42.666667V405.333333a42.666667 42.666667 0 0 0-42.666666-42.666666H597.333333z" fill="#24222D" p-id="7845"></path><path d="M629.333333 832h106.666667a32 32 0 0 1 0 64h-106.666667a32 32 0 0 1 0-64z m213.333334 64a32 32 0 1 1 0.021333-64.021333A32 32 0 0 1 842.666667 896z m0-213.333333a32 32 0 1 1 0.021333-64.021334A32 32 0 0 1 842.666667 682.666667z m0 106.666666a32 32 0 1 1 0.021333-64.021333A32 32 0 0 1 842.666667 789.333333z m-106.666667-106.666666a32 32 0 1 1 0.021333-64.021334A32 32 0 0 1 736 682.666667z m0 106.666666a32 32 0 1 1 0.021333-64.021333A32 32 0 0 1 736 789.333333z m-106.666667-106.666666a32 32 0 1 1 0.021334-64.021334A32 32 0 0 1 629.333333 682.666667z m0 106.666666a32 32 0 1 1 0.021334-64.021333A32 32 0 0 1 629.333333 789.333333z" fill="#24222D" opacity=".4" p-id="7846"></path><path d="M853.333333 554.666667H618.666667a21.333333 21.333333 0 0 1-21.333334-21.333334v-106.666666a21.333333 21.333333 0 0 1 21.333334-21.333334h234.666666a21.333333 21.333333 0 0 1 21.333334 21.333334v106.666666a21.333333 21.333333 0 0 1-21.333334 21.333334z" fill="#24222D" opacity=".8" p-id="7847"></path><path d="M376.192 917.333333H213.333333a85.333333 85.333333 0 0 1-85.333333-85.333333V192a85.333333 85.333333 0 0 1 85.333333-85.333333h405.333334a85.333333 85.333333 0 0 1 85.333333 85.333333v64a21.333333 21.333333 0 0 0 42.666667 0V192a128 128 0 0 0-128-128H213.333333a128 128 0 0 0-128 128v640a128 128 0 0 0 128 128h162.858667a21.333333 21.333333 0 1 0 0-42.666667z" fill="#24222D" p-id="7848"></path><path d="M328.490667 368.426667c-2.389333-5.76-3.093333-10.602667-2.090667-14.485334 1.002667-3.882667 4.48-7.125333 10.453333-9.706666 2.389333-1.002667 4.821333-1.642667 7.317334-1.941334a13.866667 13.866667 0 0 1 13.141333 5.674667c1.898667 2.282667 3.541333 5.525333 4.928 9.706667 2.197333 6.378667 4.48 12.288 6.869333 17.770666 2.389333 5.482667 4.970667 10.709333 7.765334 15.68l33.152-3.584-6.272-4.629333c-1.984-1.493333-4.074667-3.029333-6.272-4.629333-5.376-3.392-9.109333-7.424-11.2-12.096-2.090667-4.693333-1.450667-9.301333 1.941333-13.888 3.584-4.970667 7.466667-7.914667 11.648-8.810667 4.181333-0.896 9.365333 0.938667 15.530667 5.525333l12.096 8.96c3.477333 2.581333 7.317333 5.568 11.498666 8.96 3.392 2.773333 5.866667 5.482667 7.466667 8.064a12.970667 12.970667 0 0 1 1.792 8.661334l12.245333-1.493334c6.976-0.789333 11.904 0.042667 14.784 2.538667 2.88 2.496 4.437333 6.613333 4.629334 12.394667 0.405333 5.184-0.256 9.258667-1.941334 12.245333-1.706667 2.986667-6.314667 4.885333-13.888 5.674667l-65.706666 7.466666a187.733333 187.733333 0 0 1 5.824 6.72c1.898667 2.282667 3.84 4.224 5.824 5.824 6.976 6.378667 12.693333 11.008 17.173333 13.888 4.48 2.88 8.064 4.373333 10.752 4.48a5.824 5.824 0 0 0 5.824-3.285333c1.194667-2.282667 1.984-5.418667 2.389333-9.408 1.002667-8.554667 3.328-14.229333 7.018667-17.024 3.690667-2.773333 8.512-3.690667 14.485333-2.688 3.392 0.597333 6.08 1.344 8.064 2.24a9.344 9.344 0 0 1 4.48 4.032c1.002667 1.792 1.493333 4.138667 1.493334 7.018667s-0.298667 6.613333-0.896 11.2c-2.197333 14.528-6.378667 25.6-12.544 33.152-6.186667 7.573333-14.336 11.349333-24.490667 11.349333 3.392 5.184 5.077333 11.946667 5.077333 20.309333v48.085334c0 5.376-1.642667 9.408-4.928 12.096a18.922667 18.922667 0 0 1-12.394666 4.032 20.010667 20.010667 0 0 1-12.842667-4.032c-3.392-2.688-5.077333-6.72-5.077333-12.096v-35.242667c0-3.989333-0.64-6.570667-1.941334-7.765333-1.28-1.194667-4.224-1.792-8.810666-1.792h-51.370667c2.773333 3.392 4.181333 7.061333 4.181333 11.050666-0.213333 14.336-2.496 27.178667-6.869333 38.528a74.517333 74.517333 0 0 1-21.205333 29.717334c-9.749333 8.469333-22.506667 15.68-38.229334 21.653333-15.722667 5.973333-34.944 10.858667-57.642666 14.634667-8.96 1.6-15.488 1.344-19.562667-0.746667-4.074667-2.090667-6.528-6.528-7.317333-13.290667-1.194667-10.346667 5.077333-16.917333 18.816-19.712 19.114667-3.584 34.752-7.317333 46.890666-11.2 12.16-3.882667 21.76-8.512 28.821334-13.888 7.061333-5.376 12.096-11.797333 15.082666-19.264s4.885333-16.576 5.674667-27.328c0.405333-3.776 1.493333-7.168 3.285333-10.154666h-44.501333c-4.373333 0-7.317333 0.554667-8.810667 1.642666-1.493333 1.088-2.24 3.733333-2.24 7.914667v36.736c0 5.376-1.706667 9.408-5.077333 12.096-3.392 2.688-7.765333 4.032-13.141333 4.032a18.346667 18.346667 0 0 1-12.245334-4.032c-3.2-2.688-4.778667-6.72-4.778666-12.096V510.293333c0-10.752 2.346667-18.176 7.018666-22.250666 4.693333-4.074667 12.693333-6.122667 24.042667-6.122667h151.125333a87.296 87.296 0 0 1-12.096-8.661333c-4.266667-3.584-8.512-7.36-12.693333-11.349334-5.76-5.184-11.2-10.666667-16.277333-16.426666a208.853333 208.853333 0 0 1-14.485334-18.517334l-57.045333 6.570667c-5.568 1.002667-10.112 0.256-13.589333-2.24-3.477333-2.496-5.418667-7.018667-5.824-13.589333-0.213333-4.970667 0.789333-9.066667 2.986666-12.245334 2.197333-3.2 6.464-5.269333 12.842667-6.272l41.514667-4.181333a218.069333 218.069333 0 0 1-5.824-12.693333l-5.824-13.888z m-97.664 69.290666c-7.765333 5.76-14.186667 8.213333-19.264 7.317334-5.077333-0.896-9.002667-4.224-11.797334-10.005334a21.653333 21.653333 0 0 1-3.285333-7.317333 9.472 9.472 0 0 1 0.746667-5.973333 19.413333 19.413333 0 0 1 4.629333-5.824c2.197333-1.984 4.970667-4.266667 8.362667-6.869334 4.778667-3.392 9.664-7.168 14.634666-11.349333 4.970667-4.181333 9.856-8.618667 14.634667-13.290667 4.778667-4.693333 9.301333-9.514667 13.589333-14.485333 4.266667-4.970667 8.213333-10.048 11.797334-15.232 4.373333-6.570667 9.173333-10.496 14.336-11.797333a15.616 15.616 0 0 1 14.336 3.434666c5.184 4.586667 7.68 8.96 7.466666 13.141334-0.213333 4.181333-2.389333 9.066667-6.570666 14.634666a135.04 135.04 0 0 1-9.408 11.349334c-3.477333 3.776-7.018667 7.68-10.602667 11.648v66.602666c0 5.184-1.6 9.002667-4.778667 11.498667-3.2 2.496-7.36 3.733333-12.544 3.733333-5.568 0-10.005333-1.237333-13.290666-3.733333-3.285333-2.496-4.928-6.314667-4.928-11.498667V431.146667a98.517333 98.517333 0 0 1-4.032 3.285333c-1.28 1.002667-2.538667 1.984-3.733334 2.986667l-0.298666 0.298666z m244.010666 181.589334c-2.773333 5.376-6.976 8.32-12.544 8.810666a29.44 29.44 0 0 1-16.426666-3.434666 395.584 395.584 0 0 0-37.632-17.322667 645.248 645.248 0 0 0-41.216-14.634667c-5.973333-2.197333-9.856-5.376-11.648-9.557333a14.613333 14.613333 0 0 1 0-12.245333c2.773333-5.76 6.016-9.301333 9.706666-10.602667 3.690667-1.28 8.106667-1.152 13.290667 0.448a658.090667 658.090667 0 0 1 86.314667 32.853333c7.168 3.392 11.306667 7.253333 12.394666 11.648 1.088 4.373333 0.341333 9.066667-2.24 14.037334z" fill="#24222D" p-id="7849"></path></svg>