<?xml version="1.0" standalone="no"?><!DOCTYPE svg PUBLIC "-//W3C//DTD SVG 1.1//EN" "http://www.w3.org/Graphics/SVG/1.1/DTD/svg11.dtd"><svg t="1577928948545" class="icon" viewBox="0 0 1024 1024" version="1.1" xmlns="http://www.w3.org/2000/svg" p-id="16631" xmlns:xlink="http://www.w3.org/1999/xlink" width="200" height="200"><defs><style type="text/css"></style></defs><path d="M431.30368 613.12s-154.32192 50.32448-238.19264 392.51968h630.72256s-23.48544-261.67808-241.55648-389.1712c0 0-130.8416 0-150.97344-3.34848z" fill="#A5A5A5" p-id="16632"></path><path d="M443.52512 648.448s-140.12416 45.71136-216.25344 356.3776h572.63104s-21.3248-237.57312-219.30496-353.32608c0 0.00512-118.78912 0.00512-137.07264-3.05152z" fill="#CECECE" p-id="16633"></path><path d="M422.4 599.04l-1.86368 9.53856 48.8704 48.87552L437.76 840.96s-8.96 40.96-1.28 46.08c0 0 19.2 49.92 57.6 80.64 0 0 8.96 10.24 24.32-1.28 0 0 34.56-30.72 51.2-67.84 0 0 8.96-14.08 5.12-32l-35.49184-209.10592 48.8704-48.87552-5.69856-17.21856" fill="#C96A3D" p-id="16634"></path><path d="M203.16672 326.272a308.65408 296.91392 0 1 0 617.30816 0 308.65408 296.91392 0 1 0-617.30816 0Z" fill="#FFD9B9" p-id="16635"></path><path d="M250.1376 327.94624s80.51712-57.03168 97.29024-77.15328c0 0 57.0368-57.0368 93.93664 13.41952 0 0 43.6224 100.64384 197.94432 80.51712l181.16608-18.44736s60.39552-41.9328-46.96576-189.55264c0 0-127.488-150.97856-318.72-117.43232 0 0-261.6832 46.96576-271.74912 291.8912 0-0.01024 10.07104 70.44096 67.0976 16.75776z" fill="#5E6BB7" p-id="16636"></path></svg>