<?xml version="1.0" standalone="no"?><!DOCTYPE svg PUBLIC "-//W3C//DTD SVG 1.1//EN" "http://www.w3.org/Graphics/SVG/1.1/DTD/svg11.dtd"><svg t="1575615393333" class="icon" viewBox="0 0 1024 1024" version="1.1" xmlns="http://www.w3.org/2000/svg" p-id="6629" xmlns:xlink="http://www.w3.org/1999/xlink" width="200" height="200"><defs><style type="text/css"></style></defs><path d="M511.99941746 1019.99706681c-68.56766464 0-135.09781163-13.43480035-197.74270692-39.93182777-60.49444181-25.587712-114.81928477-62.21294137-161.46443833-108.85809493-46.64515243-46.64515243-83.27038179-100.96999538-108.85692984-161.46443833-26.49702627-62.64605923-39.93182777-129.17504341-39.93182778-197.74270692 0-68.56766464 13.43480035-135.09781163 39.93182778-197.743872 25.587712-60.49444181 62.21177742-114.81928477 108.85692984-161.46443833s100.96999538-83.27038179 161.46443833-108.85692984c62.64489529-26.49702627 129.17504341-39.93182777 197.74270692-39.93182778s135.09781163 13.43480035 197.74270691 39.93182778c60.4956069 25.58654805 114.81928477 62.21177742 161.46560228 108.85692984 46.64515243 46.64515243 83.27038179 100.96999538 108.85692985 161.46443833 26.49702627 62.64605923 39.93182777 129.17620736 39.93182777 197.743872 0 68.56766464-13.43480035 135.09664768-39.93182777 197.74270692-25.587712 60.49444181-62.21294137 114.81928477-108.85692985 161.46443833-46.64515243 46.64515243-100.96999538 83.27154688-161.46443833 108.85809493C647.09723022 1006.56226645 580.56591815 1019.99706681 511.99941746 1019.99706681zM511.99941746 56.39737458c-251.21994297 0-455.60262542 204.38268245-455.60262543 455.60262542 0 251.22110805 204.38268245 455.60378937 455.60262543 455.60378937 251.22110805 0 455.60378937-204.38268245 455.60378937-455.60378937C967.60204288 260.78005703 763.21936157 56.39737458 511.99941746 56.39737458zM673.71417941 519.56791751L349.26589838 519.56791751c-14.46753053 0-26.19663815-11.72910877-26.19663815-26.19663815s11.72910877-26.19663815 26.19663815-26.19663815L673.71417941 467.17464007c14.46869447 0 26.19663815 11.72910877 26.19663816 26.19663815S688.18287389 519.56791751 673.71417941 519.56791751zM673.71417941 641.62446109L349.26589838 641.62446109c-14.46753053 0-26.19663815-11.72794368-26.19663815-26.19663816s11.72910877-26.19663815 26.19663815-26.19663815L673.71417941 589.23118365c14.46869447 0 26.19663815 11.72794368 26.19663816 26.19663814S688.18287389 641.62446109 673.71417941 641.62446109zM510.98182429 786.93896192c-14.46869447 0-26.19663815-11.72794368-26.19663816-26.19663815l-0.00116394-257.15901212c0-14.46753053 11.72794368-26.19663815 26.19663815-26.19663816s26.19663815 11.72910877 26.19663815 26.19663816l0.00116394 257.15901212C537.17846243 775.20985429 525.45051875 786.93896192 510.98182429 786.93896192zM511.51507115 529.78227883c-8.61229056 0-17.04760775-4.24269141-22.05407688-12.02367488L339.65464235 284.97294336c-7.82988402-12.16688355-4.31487773-28.37619939 7.85200583-36.20608341 12.16455453-7.83104797 28.37619939-4.31487773 36.20608341 7.85200583L533.51908352 489.40569031c7.82988402 12.16688355 4.31371264 28.37619939-7.85316978 36.20608342C521.2811776 528.43402467 516.36901774 529.78227883 511.51507115 529.78227883zM511.68505856 529.78227883c-4.85511054 0-9.76610645-1.34825415-14.15084259-4.17166905-12.16688355-7.82988402-15.68305379-24.03919986-7.85316978-36.20608341l149.80635192-232.78565946c7.82988402-12.16688355 24.03919986-15.68421888 36.20608342-7.85200582 12.16688355 7.82988402 15.68305379 24.03919986 7.85316978 36.20608341L533.74029938 517.75860281C528.73266631 525.53958741 520.29734912 529.78227883 511.68505856 529.78227883z" fill="#000000" p-id="6630"></path></svg>