<?xml version="1.0" standalone="no"?><!DOCTYPE svg PUBLIC "-//W3C//DTD SVG 1.1//EN" "http://www.w3.org/Graphics/SVG/1.1/DTD/svg11.dtd"><svg t="1577353455568" class="icon" viewBox="0 0 1137 1024" version="1.1" xmlns="http://www.w3.org/2000/svg" p-id="4699" xmlns:xlink="http://www.w3.org/1999/xlink" width="222.0703125" height="200"><defs><style type="text/css"></style></defs><path d="M1009.777778 375.651556v250.716444c71.111111 0 128-55.715556 128-125.361778 0-69.639111-56.888889-125.354667-128-125.354666zM0 494.044444c0 69.646222 56.888889 125.361778 128 125.361778V368.682667c-71.111111 0-128 55.715556-128 125.361777zM1016.888889 675.121778c-14.222222-6.968889-28.444444 0-35.555556 13.930666-64 125.361778-177.777778 215.893333-312.888889 250.723556-14.222222-20.899556-42.666667-41.792-78.222222-41.792-49.777778 0-85.333333 27.861333-85.333333 62.684444 0 34.823111 35.555556 62.677333 85.333333 62.677334 35.555556 0 64-13.930667 78.222222-34.823111 163.555556-27.854222 298.666667-132.323556 369.777778-285.539556 0-6.968889-7.111111-20.899556-21.333333-27.861333zM760.888889 97.066667c78.222222 34.823111 149.333333 90.538667 192 167.146666 7.111111 13.937778 21.333333 34.823111 28.444444 48.753778 7.111111 13.930667 21.333333 20.892444 35.555556 13.930667 14.222222-6.968889 21.333333-20.892444 14.222222-34.823111-7.111111-20.892444-21.333333-41.784889-35.555555-55.715556-49.777778-83.576889-128-146.254222-220.444445-188.046222-248.888889-118.392889-554.666667-6.961778-675.555555 243.761778-7.111111 13.930667 0 27.854222 14.222222 34.823111h14.222222c14.222222 0 21.333333-6.968889 28.444444-13.930667 99.555556-222.862222 376.888889-320.369778 604.444445-215.893333zM334.222222 521.905778c42.666667-34.823111 64-69.646222 64-104.469334 0-27.861333-7.111111-41.784889-21.333333-55.715555-28.444444-20.892444-49.777778-27.861333-78.222222-27.861333s-56.888889 6.968889-85.333334 20.892444v48.753778c21.333333-20.892444 49.777778-27.854222 71.111111-27.854222 28.444444 0 42.666667 13.923556 42.666667 41.784888 0 13.930667 0 20.892444-7.111111 34.823112-7.111111 13.923556-14.222222 27.854222-35.555556 48.746666L206.222222 577.621333v48.746667h184.888889v-55.715556H270.222222l64-48.746666zM547.555556 619.406222h56.888888v-55.715555h35.555556v-48.753778h-35.555556V340.835556h-64L419.555556 521.905778v34.816h128v62.684444z m-78.222223-104.462222l64-97.507556c0-6.968889 7.111111-6.968889 7.111111-13.930666 0-6.968889 0-6.968889 7.111112-6.968889v118.4H469.333333z" fill="#CD2525" p-id="4700"></path><path d="M824.888889 445.297778V340.821333c0-48.753778-21.333333-69.646222-56.888889-69.646222-21.333333 0-42.666667 6.968889-56.888889 27.854222v-111.431111h-56.888889V438.328889h56.888889V347.790222c0-13.930667 0-20.892444 7.111111-27.861333 7.111111-6.961778 14.222222-13.923556 21.333334-13.923556 21.333333 0 28.444444 13.923556 28.444444 41.784889v97.500445h56.888889z" fill="#CD2525" p-id="4701"></path></svg>