<?xml version="1.0" standalone="no"?><!DOCTYPE svg PUBLIC "-//W3C//DTD SVG 1.1//EN" "http://www.w3.org/Graphics/SVG/1.1/DTD/svg11.dtd"><svg t="1575877382642" class="icon" viewBox="0 0 1024 1024" version="1.1" xmlns="http://www.w3.org/2000/svg" p-id="5906" xmlns:xlink="http://www.w3.org/1999/xlink" width="200" height="200"><defs><style type="text/css"></style></defs><path d="M537.6 534.4c83.2-41.6 140.8-124.8 140.8-224 0-134.4-112-243.2-249.6-243.2-134.4 3.2-243.2 112-243.2 246.4 0 99.2 57.6 182.4 140.8 220.8C160 579.2 32 723.2 16 902.4c-3.2 19.2 12.8 35.2 32 35.2h764.8c19.2 0 35.2-16 32-35.2-12.8-179.2-140.8-323.2-307.2-368z" p-id="5907" fill="#46df0b"></path><path d="M1014.4 838.4c-12.8-144-112-262.4-246.4-304-3.2 0-6.4-6.4 0-9.6 0 0 3.2 0 3.2-3.2 64-38.4 105.6-105.6 105.6-182.4 0-118.4-96-214.4-214.4-214.4h3.2-9.6c-3.2 0-3.2 3.2 0 6.4 57.6 38.4 76.8 121.6 80 198.4 0 83.2-41.6 153.6-108.8 195.2-6.4 3.2-6.4 12.8 3.2 16 12.8 3.2 25.6 9.6 35.2 12.8h3.2c121.6 54.4 211.2 169.6 224 310.4 0 0 0 6.4 6.4 6.4H992c9.6-3.2 22.4-16 22.4-32z" p-id="5908" fill="#46df0b"></path></svg>