<?xml version="1.0" standalone="no"?><!DOCTYPE svg PUBLIC "-//W3C//DTD SVG 1.1//EN" "http://www.w3.org/Graphics/SVG/1.1/DTD/svg11.dtd"><svg t="1577776905238" class="icon" viewBox="0 0 1312 1024" version="1.1" xmlns="http://www.w3.org/2000/svg" p-id="43676" xmlns:xlink="http://www.w3.org/1999/xlink" width="256.25" height="200"><defs><style type="text/css"></style></defs><path d="M725.989744 395.185231h393.767384v68.135384H725.963487v-68.135384z m119.624205 500.814769l-3.229539-3.413333H115.790769c-28.934564 0-51.462564-23.840821-51.462564-54.508308V122.643692c0-30.641231 22.528-57.921641 51.462564-57.921641h1035.290257c28.960821 0 51.462564 23.867077 51.462564 54.534564V548.49641l3.203282 3.413334c16.095179 10.213744 32.164103 23.840821 45.029743 40.854974l12.865641 17.066667V105.577026C1263.616 47.681641 1218.56 0 1163.946667 0H99.669333C45.029744 0 0 47.681641 0 105.603282v749.489231c0 57.921641 45.029744 105.629538 99.669333 105.629538h787.744821l-9.636103-13.653333c-12.865641-17.014154-22.528-34.054564-32.164102-51.068718zM725.963487 545.083077h116.420923v68.161641h-116.420923V545.083077z m0-296.382359h393.793641v68.135385H725.963487V248.700718zM1085.492513 555.323077c-126.660923 0-225.962667 98.776615-225.962667 224.859897 0 122.617436 102.715077 224.833641 225.962667 224.833641 126.713436 0 225.988923-98.802872 225.988923-224.859897 0-126.030769-102.715077-224.833641-225.988923-224.833641z m-3.413334 361.10441c-10.24 10.24-30.798769 10.24-44.504615 0l-95.835897-95.389538c-10.292513-10.213744-10.292513-30.641231 0-40.854975 10.24-10.24 30.772513-10.24 44.478359 0l75.329641 74.935795 147.245948-143.097436c10.24-10.213744 30.798769-10.213744 44.478359 0 10.292513 10.24 10.292513 30.693744 0 40.907488l-171.191795 163.498666zM586.043077 338.628923a181.563077 181.563077 0 1 0-363.126154 0c0 53.746872 23.368205 102.058667 60.494769 135.273026a290.579692 290.579692 0 0 0-169.432615 264.139487H695.007179c0-117.234872-69.448205-218.190769-169.432615-264.139487a181.116718 181.116718 0 0 0 60.494769-135.273026z" p-id="43677" fill="#df341e"></path></svg>