<?xml version="1.0" standalone="no"?><!DOCTYPE svg PUBLIC "-//W3C//DTD SVG 1.1//EN" "http://www.w3.org/Graphics/SVG/1.1/DTD/svg11.dtd"><svg t="1575877255286" class="icon" viewBox="0 0 1076 1024" version="1.1" xmlns="http://www.w3.org/2000/svg" p-id="2178" xmlns:xlink="http://www.w3.org/1999/xlink" width="210.15625" height="200"><defs><style type="text/css"></style></defs><path d="M1064.96 628.053333c-6.826667-6.826667-20.48-10.24-30.72-6.826666l-88.746667 20.48c-10.24 3.413333-20.48 10.24-23.893333 20.48-3.413333 10.24 0 23.893333 6.826667 30.72l6.826666 6.826666-133.12 136.533334-119.466666-109.226667c-6.826667-6.826667-17.066667-10.24-27.306667-10.24-10.24 0-20.48 3.413333-27.306667 10.24-37.546667 37.546667-98.986667 92.16-109.226666 98.986667-13.653333 10.24-20.48 30.72-13.653334 47.786666 6.826667 13.653333 20.48 20.48 34.133334 20.48 6.826667 0 10.24 0 17.066666-3.413333s10.24-3.413333 95.573334-85.333333l119.466666 109.226666c6.826667 6.826667 17.066667 10.24 27.306667 10.24 10.24 0 20.48-3.413333 27.306667-10.24L989.866667 750.933333l3.413333 3.413334c6.826667 6.826667 13.653333 10.24 23.893333 10.24h6.826667c10.24-3.413333 20.48-10.24 23.893333-20.48l27.306667-85.333334c3.413333-13.653333 0-23.893333-10.24-30.72z m-566.613333 146.773334c20.48 0 37.546667-17.066667 37.546666-37.546667v-150.186667h163.84c20.48 0 37.546667-17.066667 37.546667-37.546666 0-20.48-17.066667-37.546667-37.546667-37.546667h-163.84v-78.506667h163.84c20.48 0 37.546667-17.066667 37.546667-37.546666 0-20.48-17.066667-37.546667-37.546667-37.546667H580.266667l98.986666-95.573333c6.826667-6.826667 10.24-17.066667 10.24-27.306667 0-10.24-3.413333-20.48-10.24-27.306667-6.826667-6.826667-17.066667-10.24-27.306666-10.24-10.24 0-20.48 3.413333-27.306667 10.24l-122.88 119.466667L378.88 204.8c-6.826667-6.826667-17.066667-10.24-27.306667-10.24-10.24 0-17.066667 3.413333-23.893333 10.24-10.24 6.826667-13.653333 17.066667-13.653333 27.306667 0 10.24 3.413333 20.48 10.24 27.306666l98.986666 95.573334H293.546667c-20.48 0-37.546667 17.066667-37.546667 37.546666 0 20.48 17.066667 37.546667 37.546667 37.546667h163.84V512H293.546667c-20.48 0-37.546667 17.066667-37.546667 37.546667 0 20.48 17.066667 37.546667 37.546667 37.546666h163.84v150.186667c3.413333 20.48 20.48 37.546667 40.96 37.546667z m0-6.826667z" fill="#F37938" p-id="2179"></path><path d="M518.826667 945.493333H512C273.066667 945.493333 78.506667 750.933333 78.506667 512 78.506667 273.066667 273.066667 78.506667 512 78.506667 750.933333 78.506667 945.493333 273.066667 945.493333 512v6.826667c3.413333 17.066667 17.066667 34.133333 37.546667 34.133333 20.48 0 34.133333-13.653333 37.546667-34.133333V512c0-283.306667-228.693333-512-512-512C228.693333 0 0 228.693333 0 512s228.693333 512 512 512h6.826667c17.066667-3.413333 34.133333-17.066667 34.133333-37.546667-3.413333-20.48-17.066667-37.546667-34.133333-40.96z" fill="#F37938" p-id="2180"></path></svg>